<svg width="45" height="45" viewBox="0 0 45 45" fill="none" xmlns="http://www.w3.org/2000/svg">
<path fill-rule="evenodd" clip-rule="evenodd" d="M22.5 4.5C12.5589 4.5 4.5 12.5589 4.5 22.5C4.5 27.223 6.31814 31.5222 9.29698 34.7349C9.40945 34.3628 9.55903 33.9973 9.75415 33.6485C10.4156 32.4658 11.2501 31.3721 12.2402 30.4051C13.2338 29.4346 14.3549 28.6201 15.564 27.9766C13.7225 26.2139 12.5711 23.7502 12.5711 21C12.5711 15.5655 17.0667 11.25 22.5 11.25C27.9333 11.25 32.4289 15.5655 32.4289 21C32.4289 23.7502 31.2775 26.2139 29.436 27.9766C30.6451 28.6201 31.7662 29.4346 32.7598 30.4051C33.7499 31.3721 34.5844 32.4658 35.2459 33.6485C35.441 33.9973 35.5905 34.3628 35.703 34.7349C38.6819 31.5222 40.5 27.223 40.5 22.5C40.5 12.5589 32.4411 4.5 22.5 4.5ZM31.3675 38.1683C31.4549 37.7188 31.4987 37.297 31.5 36.9232C31.5021 36.3056 31.389 35.9713 31.3184 35.8451C30.8672 35.0383 30.2963 34.2892 29.6155 33.6243C27.7372 31.7898 25.1787 30.75 22.5 30.75C19.8213 30.75 17.2628 31.7898 15.3845 33.6243C14.7037 34.2892 14.1328 35.0383 13.6816 35.8451C13.611 35.9713 13.4979 36.3056 13.5 36.9232C13.5013 37.297 13.5451 37.7188 13.6325 38.1683C16.2484 39.6524 19.2724 40.5 22.5 40.5C25.7276 40.5 28.7516 39.6524 31.3675 38.1683ZM22.5 26.25C25.5486 26.25 27.9289 23.8498 27.9289 21C27.9289 18.1502 25.5486 15.75 22.5 15.75C19.4514 15.75 17.0711 18.1502 17.0711 21C17.0711 23.8498 19.4514 26.25 22.5 26.25ZM0 22.5C0 10.0736 10.0736 0 22.5 0C34.9264 0 45 10.0736 45 22.5C45 30.5038 40.8192 37.5296 34.533 41.5151C31.0516 43.7223 26.9216 45 22.5 45C18.0784 45 13.9484 43.7223 10.467 41.5151C4.1808 37.5296 0 30.5038 0 22.5Z" fill="#13357B"/>
</svg>
